<?xml version="1.0" encoding="utf-8"?>
<!-- Generator: Adobe Illustrator 16.0.0, SVG Export Plug-In . SVG Version: 6.00 Build 0)  -->
<!DOCTYPE svg PUBLIC "-//W3C//DTD SVG 1.1//EN" "http://www.w3.org/Graphics/SVG/1.1/DTD/svg11.dtd">
<svg version="1.1" id="Layer_1" xmlns="http://www.w3.org/2000/svg" xmlns:xlink="http://www.w3.org/1999/xlink" x="0px" y="0px"
	 width="512px" height="512px" viewBox="0 0 512 512" enable-background="new 0 0 512 512" xml:space="preserve">
<g>
	<g>
		<path d="M255.984,369.072c-13.332,0-26.344-3.703-37.686-10.723L93.455,281.061v133.083c0,39.388,72.801,71.272,162.529,71.272
			c89.76,0,162.555-31.885,162.555-71.272V281.061l-124.838,77.288C282.359,365.369,269.316,369.072,255.984,369.072z"/>
		<path d="M490.41,164.87L276.385,32.382c-6.268-3.862-13.334-5.799-20.4-5.799s-14.137,1.937-20.367,5.799L21.59,164.87
			c-5.715,3.534-9.186,9.782-9.186,16.504c0,6.723,3.471,12.971,9.186,16.513l214.027,132.489c6.23,3.864,13.301,5.799,20.367,5.799
			s14.133-1.935,20.4-5.799L490.41,197.887c5.715-3.542,9.186-9.79,9.186-16.513C499.596,174.652,496.125,168.404,490.41,164.87z"/>
	</g>
	<path d="M479.488,466.815c3.93,0,7.648-1.772,10.123-4.825s3.44-7.058,2.628-10.902l-8.207-38.838
		c4.674-4.522,7.612-10.835,7.612-17.854c0-7.389-3.291-13.943-8.399-18.496V241.028l-32.899,20.359V375.9
		c-5.108,4.553-8.4,11.107-8.4,18.496c0,7.02,2.939,13.333,7.613,17.854l-8.208,38.838c-0.812,3.844,0.153,7.85,2.628,10.902
		c2.475,3.052,6.193,4.825,10.123,4.825H479.488z"/>
</g>
</svg>
